<svg width="39" height="31" viewBox="0 0 39 31" fill="none" xmlns="http://www.w3.org/2000/svg">
<path d="M23.8545 9.76686H25.308L23.2633 12.1214C23.1741 12.224 23.1182 12.3477 23.1021 12.4783C23.0859 12.6089 23.1101 12.741 23.1718 12.8595C23.2336 12.978 23.3305 13.078 23.4512 13.1479C23.572 13.2179 23.7118 13.255 23.8545 13.255H26.8836C27.0844 13.255 27.277 13.1815 27.4191 13.0507C27.5611 12.9199 27.6409 12.7424 27.6409 12.5574C27.6409 12.3724 27.5611 12.1949 27.4191 12.0641C27.277 11.9333 27.0844 11.8598 26.8836 11.8598H25.4301L27.4747 9.50524C27.5639 9.40264 27.6198 9.27892 27.636 9.14834C27.6522 9.01775 27.628 8.88561 27.5662 8.76713C27.5044 8.64866 27.4076 8.54867 27.2868 8.47869C27.166 8.40871 27.0263 8.37158 26.8836 8.37158H23.8545C23.6536 8.37158 23.461 8.44508 23.319 8.57591C23.177 8.70675 23.0972 8.8842 23.0972 9.06922C23.0972 9.25425 23.177 9.43169 23.319 9.56253C23.461 9.69336 23.6536 9.76686 23.8545 9.76686Z" fill="#516AD6"/>
<path d="M30.6699 1.39528H32.1234L30.0787 3.74981C29.9896 3.85241 29.9337 3.97613 29.9175 4.10671C29.9013 4.2373 29.9255 4.36944 29.9873 4.48792C30.0491 4.60639 30.1459 4.70638 30.2667 4.77636C30.3874 4.84634 30.5272 4.88347 30.6699 4.88347H33.699C33.8999 4.88347 34.0925 4.80997 34.2345 4.67913C34.3765 4.5483 34.4563 4.37086 34.4563 4.18583C34.4563 4.0008 34.3765 3.82336 34.2345 3.69253C34.0925 3.56169 33.8999 3.48819 33.699 3.48819H32.2455L34.2902 1.13366C34.3793 1.03106 34.4352 0.907341 34.4514 0.776754C34.4676 0.646167 34.4434 0.514026 34.3816 0.395552C34.3198 0.277078 34.223 0.177092 34.1022 0.10711C33.9815 0.0371292 33.8417 -3.2885e-08 33.699 0H30.6699C30.469 0 30.2764 0.0735011 30.1344 0.204334C29.9924 0.335166 29.9126 0.512613 29.9126 0.697638C29.9126 0.882664 29.9924 1.06011 30.1344 1.19094C30.2764 1.32178 30.469 1.39528 30.6699 1.39528Z" fill="#516AD6"/>
<path d="M3.26161 23.1806C3.2607 20.4626 5.29083 18.052 8.19847 17.3185C11.6234 16.4544 20.2108 16.1693 26.5753 16.7085C26.8879 16.7344 27.1655 16.5227 27.1945 16.2342C27.2233 15.9457 26.9928 15.6904 26.6796 15.6638C20.9313 15.1768 11.804 15.3211 7.89767 16.3067C5.66217 16.8707 3.87038 18.2852 2.90482 20.0941H1.43577C0.644111 20.094 0 20.6874 0 21.4167V23.7532C0 24.4825 0.644111 25.0759 1.43577 25.0759H2.36484C2.68674 26.292 3.32605 27.3846 4.25992 28.2963C4.37197 28.4056 4.52287 28.4608 4.67414 28.4608C4.81438 28.4608 4.95484 28.4135 5.06483 28.3178C5.2935 28.119 5.30401 27.787 5.08821 27.5763C3.89376 26.4102 3.26222 24.8902 3.26161 23.1806ZM1.43577 24.0268C1.272 24.0268 1.13877 23.904 1.13877 23.7532V21.4167C1.13877 21.2658 1.272 21.1431 1.43577 21.1431H2.45396C2.23801 21.7933 2.12269 22.4783 2.12291 23.1809C2.12299 23.4676 2.13906 23.7496 2.16976 24.0268H1.43577Z" fill="#516AD6"/>
<path d="M37.5642 20.0941H36.0951C35.1296 18.2852 33.3377 16.8707 31.1023 16.3067C30.6101 16.1825 30.0165 16.0677 29.3379 15.9656C29.0269 15.9192 28.7349 16.1129 28.6842 16.3988C28.6335 16.6847 28.8441 16.9543 29.1545 17.0011C29.7936 17.0971 30.3478 17.204 30.8016 17.3185C33.7092 18.052 35.7393 20.4627 35.7384 23.1807C35.7377 25.1592 34.9073 26.8526 33.3368 28.0778C31.4063 29.584 28.4512 30.25 25.6297 29.8169C25.6005 29.8121 22.6935 29.3161 21.4383 27.2047C21.4335 27.1966 21.4285 27.1886 21.4232 27.1807C21.0082 26.5624 20.2892 26.1931 19.5 26.1931C18.7107 26.1931 17.9918 26.5623 17.5767 27.1807C17.5714 27.1886 17.5664 27.1966 17.5616 27.2047C16.3064 29.3161 13.3994 29.8121 13.3747 29.8163C11.1947 30.1509 8.90062 29.8368 7.08087 28.9542C6.80239 28.8193 6.45824 28.9177 6.31176 29.174C6.16528 29.4304 6.27208 29.7476 6.55033 29.8825C8.58588 30.8696 11.1415 31.2225 13.5654 30.8505C13.7062 30.828 17.0257 30.2723 18.5521 27.7222C18.762 27.417 19.1067 27.2423 19.4999 27.2423C19.8931 27.2423 20.2378 27.4171 20.4476 27.7223C21.9741 30.2723 25.2936 30.828 25.4379 30.851C26.089 30.951 26.7414 30.9999 27.3864 30.9999C29.9062 30.9999 32.3115 30.2524 34.0727 28.8784C35.3792 27.8591 36.2467 26.5659 36.6381 25.076H37.5642C38.3558 25.076 38.9999 24.4827 38.9999 23.7533V21.4168C39 20.6874 38.3559 20.0941 37.5642 20.0941ZM37.8612 23.7532C37.8612 23.9041 37.728 24.0269 37.5642 24.0269H36.8316C36.8618 23.7503 36.8771 23.4682 36.8772 23.181C36.8774 22.4783 36.7621 21.7934 36.5461 21.1431H37.5643C37.7281 21.1431 37.8613 21.2659 37.8613 21.4168V23.7532H37.8612Z" fill="#516AD6"/>
<path d="M15.781 22.2538L15.801 22.2298C15.9938 22.0012 15.9492 21.6716 15.7011 21.4938C15.4529 21.316 15.0956 21.3568 14.9026 21.5852L14.8875 21.6033C14.3071 22.2787 13.242 22.6784 12.0412 22.6691C11.2339 22.6638 10.4938 22.4736 9.92741 22.1409C9.92353 22.1386 9.91957 22.1365 9.91561 22.1343C9.65693 21.9808 9.43496 21.7974 9.26015 21.5878C9.06842 21.3583 8.71118 21.3152 8.46171 21.4917C8.21248 21.6683 8.16571 21.9976 8.35736 22.2273C8.55457 22.4637 8.79192 22.6756 9.06073 22.861C9.03978 23.0874 8.93863 23.449 8.5276 23.664C8.25414 23.807 8.15832 24.1272 8.31363 24.379C8.41845 24.5491 8.61101 24.6446 8.80921 24.6446C8.9045 24.6446 9.00109 24.6226 9.08983 24.5761C9.69745 24.2583 9.9783 23.7954 10.1046 23.3883C10.5302 23.5407 10.9937 23.6438 11.4804 23.69C11.5499 23.9703 11.6033 24.4491 11.3083 24.8245C11.1239 25.0591 11.1808 25.3871 11.4355 25.557C11.5365 25.6244 11.6532 25.6568 11.769 25.6568C11.9453 25.6568 12.1193 25.5815 12.2306 25.4399C12.6978 24.8456 12.7145 24.173 12.6378 23.6934C13.1252 23.65 13.5899 23.5496 14.0178 23.3998C14.2206 23.4981 14.616 23.7513 14.6431 24.2427C14.6585 24.5229 14.9101 24.7406 15.2112 24.7406C15.2209 24.7406 15.2308 24.7403 15.2406 24.7399C15.5546 24.7252 15.7963 24.4787 15.7802 24.1893C15.7458 23.5663 15.4414 23.1351 15.1148 22.8481C15.3667 22.6729 15.5913 22.4744 15.781 22.2538Z" fill="#516AD6"/>
<path d="M30.6427 22.2273C30.8343 21.9976 30.7876 21.6683 30.5383 21.4917C30.2888 21.3152 29.9316 21.3583 29.7399 21.5878C29.5648 21.7976 29.3425 21.9813 29.0834 22.1349C29.08 22.1367 29.0767 22.1386 29.0734 22.1404C28.5069 22.4734 27.7664 22.6638 26.9588 22.6691C25.7597 22.6784 24.693 22.2787 24.1094 21.5995L24.0997 21.5877C23.9079 21.3582 23.5526 21.3175 23.3032 21.4942C23.054 21.6709 23.0094 22.0026 23.2011 22.2322L23.2198 22.2546C23.4092 22.475 23.6336 22.6732 23.8852 22.8482C23.5586 23.1352 23.2542 23.5664 23.2198 24.1893C23.2038 24.4786 23.4454 24.725 23.7595 24.7399C23.7693 24.7403 23.7792 24.7406 23.7889 24.7406C24.0901 24.7406 24.3416 24.5229 24.357 24.2427C24.3842 23.7511 24.7795 23.4981 24.9823 23.4C25.4101 23.5497 25.8748 23.65 26.3623 23.6934C26.2856 24.1731 26.3023 24.8456 26.7695 25.44C26.8808 25.5816 27.0547 25.6569 27.2311 25.6569C27.3469 25.6569 27.4636 25.6245 27.5646 25.5571C27.8193 25.3871 27.8763 25.0593 27.6918 24.8246C27.3968 24.4493 27.4502 23.9704 27.5197 23.6901C28.0064 23.6439 28.4699 23.5408 28.8955 23.3884C29.0218 23.7955 29.3027 24.2584 29.9103 24.5762C29.999 24.6227 30.0956 24.6447 30.1909 24.6447C30.3891 24.6447 30.5817 24.5492 30.6865 24.3791C30.8418 24.1272 30.746 23.807 30.4725 23.664C30.0659 23.4513 29.9634 23.0887 29.9412 22.8599C30.2093 22.6747 30.4458 22.4631 30.6427 22.2273Z" fill="#516AD6"/>
</svg>
