<svg width="85" height="165" viewBox="0 0 85 165" fill="none" xmlns="http://www.w3.org/2000/svg">
<path d="M11.7053 0.957798L1.38633 11.2768C1.14198 11.509 0.946582 11.7877 0.811632 12.0966C0.676682 12.4055 0.604913 12.7383 0.600552 13.0754C0.596192 13.4125 0.659328 13.747 0.786242 14.0593C0.913157 14.3716 1.10128 14.6553 1.33954 14.8938C1.57779 15.1322 1.86136 15.3206 2.17354 15.4478C2.48572 15.575 2.82019 15.6384 3.15726 15.6343C3.49432 15.6303 3.82717 15.5588 4.13619 15.4241C4.44521 15.2894 4.72415 15.0943 4.95659 14.8501L11.047 8.7503L11.047 29.0371C11.047 29.7072 11.3132 30.3498 11.787 30.8236C12.2608 31.2974 12.9034 31.5636 13.5735 31.5636C14.2435 31.5636 14.8862 31.2974 15.36 30.8236C15.8338 30.3498 16.0999 29.7072 16.0999 29.0371L16.0999 8.80673L22.1528 14.8501C22.6305 15.3042 23.2668 15.5536 23.9259 15.5451C24.585 15.5365 25.2146 15.2708 25.6805 14.8045C26.1463 14.3382 26.4115 13.7084 26.4195 13.0493C26.4274 12.3902 26.1775 11.7541 25.723 11.2768L15.4041 0.957797C15.17 0.722371 14.8916 0.535753 14.5849 0.408765C14.2782 0.281778 13.9493 0.216951 13.6174 0.218044C13.5965 0.216396 13.5755 0.216396 13.5547 0.218044C13.5338 0.21656 13.5129 0.21656 13.492 0.218044C12.8219 0.218267 12.1794 0.484315 11.7053 0.957798Z" fill="#617EFF"/>
<path d="M40.6005 16.6758L30.2816 26.9948C30.0372 27.227 29.8418 27.5058 29.7069 27.8147C29.5719 28.1236 29.5002 28.4564 29.4958 28.7934C29.4915 29.1305 29.5546 29.465 29.6815 29.7773C29.8084 30.0896 29.9965 30.3733 30.2348 30.6118C30.4731 30.8503 30.7566 31.0386 31.0688 31.1658C31.381 31.293 31.7155 31.3564 32.0525 31.3524C32.3896 31.3483 32.7224 31.2768 33.0315 31.1421C33.3405 31.0075 33.6194 30.8123 33.8519 30.5682L39.9423 24.4683L39.9423 44.7552C39.9423 45.4252 40.2085 46.0678 40.6823 46.5416C41.1561 47.0154 41.7987 47.2816 42.4687 47.2816C43.1388 47.2816 43.7814 47.0154 44.2552 46.5416C44.729 46.0678 44.9952 45.4252 44.9952 44.7552L44.9952 24.5247L51.048 30.5682C51.5258 31.0222 52.1621 31.2716 52.8212 31.2631C53.4802 31.2546 54.1099 30.9888 54.5757 30.5225C55.0416 30.0563 55.3068 29.4264 55.3148 28.7673C55.3227 28.1082 55.0728 27.4721 54.6183 26.9948L44.2993 16.6758C44.0653 16.4404 43.7869 16.2538 43.4802 16.1268C43.1734 15.9998 42.8446 15.935 42.5126 15.9361C42.4918 15.9344 42.4708 15.9344 42.4499 15.9361C42.4291 15.9346 42.4081 15.9346 42.3872 15.9361C41.7172 15.9363 41.0746 16.2023 40.6005 16.6758Z" fill="#617EFF"/>
<path d="M69.4387 0.957798L59.1197 11.2768C58.8754 11.509 58.68 11.7877 58.545 12.0966C58.4101 12.4055 58.3383 12.7383 58.334 13.0754C58.3296 13.4125 58.3927 13.747 58.5196 14.0593C58.6466 14.3716 58.8347 14.6553 59.0729 14.8938C59.3112 15.1322 59.5948 15.3206 59.9069 15.4478C60.2191 15.575 60.5536 15.6384 60.8907 15.6343C61.2277 15.6303 61.5606 15.5588 61.8696 15.4241C62.1786 15.2894 62.4576 15.0943 62.69 14.8501L68.7804 8.7503L68.7804 29.0371C68.7804 29.7072 69.0466 30.3498 69.5204 30.8236C69.9942 31.2974 70.6368 31.5636 71.3069 31.5636C71.9769 31.5636 72.6195 31.2974 73.0934 30.8236C73.5672 30.3498 73.8333 29.7072 73.8333 29.0371L73.8333 8.80673L79.8862 14.8501C80.3639 15.3042 81.0002 15.5536 81.6593 15.5451C82.3184 15.5365 82.948 15.2708 83.4139 14.8045C83.8797 14.3382 84.1449 13.7084 84.1529 13.0493C84.1608 12.3902 83.9109 11.7541 83.4564 11.2768L73.1375 0.957797C72.9034 0.722371 72.625 0.535753 72.3183 0.408765C72.0116 0.281778 71.6827 0.216951 71.3508 0.218044C71.3299 0.216396 71.3089 0.216396 71.2881 0.218044C71.2672 0.21656 71.2463 0.21656 71.2254 0.218044C70.5553 0.218267 69.9128 0.484315 69.4387 0.957798Z" fill="#617EFF"/>
<path d="M13.1935 72.6964C16.543 72.6964 19.2835 69.9559 19.2835 66.6064C19.2835 63.2569 13.1935 56.4564 13.1935 56.4564C13.1935 56.4564 7.10352 63.3584 7.10352 66.6064C7.10352 69.8544 9.84401 72.6964 13.1935 72.6964Z" fill="#617EFF"/>
<path d="M42.2895 72.6964C45.639 72.6964 48.3794 69.9559 48.3794 66.6064C48.3794 63.2569 42.2895 56.4564 42.2895 56.4564C42.2895 56.4564 36.1995 63.3584 36.1995 66.6064C36.1995 69.8544 38.94 72.6964 42.2895 72.6964Z" fill="#617EFF"/>
<path d="M71.3866 72.6964C74.7361 72.6964 77.4766 69.9559 77.4766 66.6064C77.4766 63.2569 71.3866 56.4564 71.3866 56.4564C71.3866 56.4564 65.2966 63.3584 65.2966 66.6064C65.2966 69.8544 68.0371 72.6964 71.3866 72.6964Z" fill="#617EFF"/>
<path d="M84.32 111.451L49.1038 129.059C45.9314 130.648 39.9365 130.648 36.7642 129.059L1.5459 111.451V119.163L33.6798 135.229C38.7704 137.775 47.0965 137.775 52.1892 135.229L84.32 119.163V111.451Z" fill="#617EFF"/>
<path d="M49.1038 156.649C45.9314 158.24 39.9365 158.24 36.7642 156.649L1.5459 139.042V146.755L33.6798 162.82C38.7704 165.367 47.0965 165.367 52.1892 162.82L84.32 146.755V139.042L49.1038 156.649Z" fill="#617EFF"/>
<path d="M56.7224 81.9562L84.3203 95.7515V88.039L72.1546 81.9562H56.7224Z" fill="#617EFF"/>
<path d="M84.32 124.829L47.5611 143.208C45.143 144.421 40.7301 144.424 38.3059 143.208L1.5459 124.829V132.541L35.2194 149.379C37.4181 150.477 40.1786 151.029 42.933 151.029C45.6883 151.029 48.4467 150.477 50.6454 149.379L84.32 132.541V124.829Z" fill="#617EFF"/>
<path d="M42.9331 123.343C45.7903 123.343 48.1065 121.799 48.1065 119.894C48.1065 117.99 45.7903 116.446 42.9331 116.446C40.076 116.446 37.7598 117.99 37.7598 119.894C37.7598 121.799 40.076 123.343 42.9331 123.343Z" fill="#617EFF"/>
<path d="M58.4532 115.583C61.3103 115.583 63.6265 114.039 63.6265 112.134C63.6265 110.23 61.3103 108.686 58.4532 108.686C55.596 108.686 53.2798 110.23 53.2798 112.134C53.2798 114.039 55.596 115.583 58.4532 115.583Z" fill="#617EFF"/>
<path d="M58.4532 100.063C61.3103 100.063 63.6265 98.5189 63.6265 96.6143C63.6265 94.7098 61.3103 93.1658 58.4532 93.1658C55.596 93.1658 53.2798 94.7098 53.2798 96.6143C53.2798 98.5189 55.596 100.063 58.4532 100.063Z" fill="#617EFF"/>
<path d="M27.4131 115.583C30.2703 115.583 32.5865 114.039 32.5865 112.134C32.5865 110.23 30.2703 108.686 27.4131 108.686C24.5559 108.686 22.2397 110.23 22.2397 112.134C22.2397 114.039 24.5559 115.583 27.4131 115.583Z" fill="#617EFF"/>
<path d="M27.4131 100.063C30.2703 100.063 32.5865 98.5189 32.5865 96.6143C32.5865 94.7098 30.2703 93.1658 27.4131 93.1658C24.5559 93.1658 22.2397 94.7098 22.2397 96.6143C22.2397 98.5189 24.5559 100.063 27.4131 100.063Z" fill="#617EFF"/>
<path d="M42.9331 107.823C45.7903 107.823 48.1065 106.279 48.1065 104.374C48.1065 102.47 45.7903 100.926 42.9331 100.926C40.076 100.926 37.7598 102.47 37.7598 104.374C37.7598 106.279 40.076 107.823 42.9331 107.823Z" fill="#617EFF"/>
<path d="M73.9734 107.823C76.8306 107.823 79.1468 106.279 79.1468 104.374C79.1468 102.47 76.8306 100.926 73.9734 100.926C71.1163 100.926 68.8 102.47 68.8 104.374C68.8 106.279 71.1163 107.823 73.9734 107.823Z" fill="#617EFF"/>
<path d="M11.8931 107.823C14.7503 107.823 17.0665 106.279 17.0665 104.374C17.0665 102.47 14.7503 100.926 11.8931 100.926C9.03593 100.926 6.71973 102.47 6.71973 104.374C6.71973 106.279 9.03593 107.823 11.8931 107.823Z" fill="#617EFF"/>
<path d="M11.8931 92.3029C14.7503 92.3029 17.0665 90.7589 17.0665 88.8543C17.0665 86.9497 14.7503 85.4058 11.8931 85.4058C9.03593 85.4058 6.71973 86.9497 6.71973 88.8543C6.71973 90.7589 9.03593 92.3029 11.8931 92.3029Z" fill="#617EFF"/>
<path d="M42.9331 92.3029C45.7903 92.3029 48.1065 90.7589 48.1065 88.8543C48.1065 86.9497 45.7903 85.4058 42.9331 85.4058C40.076 85.4058 37.7598 86.9497 37.7598 88.8543C37.7598 90.7589 40.076 92.3029 42.9331 92.3029Z" fill="#617EFF"/>
</svg>
