<svg width="37" height="33" viewBox="0 0 37 33" fill="none" xmlns="http://www.w3.org/2000/svg">
<path d="M13.5964 13.8184H13.4158V11.1005C13.4158 10.6164 12.8303 10.3753 12.4907 10.7162L11.7681 11.4409C11.5565 11.6533 11.5565 11.9974 11.7681 12.2096C11.9206 12.3625 12.1413 12.405 12.332 12.338V13.8184H12.1513C11.852 13.8184 11.6094 14.0616 11.6094 14.3619C11.6094 14.6622 11.852 14.9055 12.1513 14.9055H13.5964C13.8957 14.9055 14.1384 14.6622 14.1384 14.3619C14.1384 14.0616 13.8957 13.8184 13.5964 13.8184Z" fill="#516AD6"/>
<path d="M16.3825 10.5569C15.4861 10.5569 14.7568 11.2884 14.7568 12.1875V13.2746C14.7568 14.1737 15.4861 14.9053 16.3825 14.9053C17.2791 14.9053 18.0084 14.1737 18.0084 13.2746V12.1875C18.0084 11.2883 17.2791 10.5569 16.3825 10.5569ZM16.9245 13.2747C16.9245 13.5745 16.6814 13.8183 16.3825 13.8183C16.0838 13.8183 15.8407 13.5745 15.8407 13.2747V12.1876C15.8407 11.8878 16.0838 11.6441 16.3825 11.6441C16.6814 11.6441 16.9245 11.8878 16.9245 12.1876V13.2747Z" fill="#516AD6"/>
<path d="M20.2541 10.5569C19.3577 10.5569 18.6284 11.2884 18.6284 12.1875V13.2746C18.6284 14.1737 19.3577 14.9053 20.2541 14.9053C21.1506 14.9053 21.8799 14.1737 21.8799 13.2746V12.1875C21.8799 11.2883 21.1507 10.5569 20.2541 10.5569ZM20.7961 13.2747C20.7961 13.5745 20.553 13.8183 20.2541 13.8183C19.9554 13.8183 19.7123 13.5745 19.7123 13.2747V12.1876C19.7123 11.8878 19.9554 11.6441 20.2541 11.6441C20.553 11.6441 20.7961 11.8878 20.7961 12.1876V13.2747Z" fill="#516AD6"/>
<path d="M23.0424 11.6435C23.3417 11.6435 23.5844 11.4002 23.5844 11.0999C23.5844 10.7997 23.3417 10.5564 23.0424 10.5564C22.7431 10.5564 22.5005 10.7997 22.5005 11.0999C22.5005 11.4001 22.7431 11.6435 23.0424 11.6435Z" fill="#516AD6"/>
<path d="M25.1119 10.6246C24.8502 10.4789 24.5204 10.5734 24.375 10.8359L22.5688 14.097C22.4234 14.3594 22.5177 14.6904 22.7793 14.8361C23.0396 14.981 23.3702 14.8884 23.5163 14.6248L25.3225 11.3638C25.4678 11.1014 25.3736 10.7705 25.1119 10.6246Z" fill="#516AD6"/>
<path d="M24.8491 13.8176C24.5498 13.8176 24.3071 14.061 24.3071 14.3611C24.3071 14.6614 24.5497 14.9047 24.8491 14.9047C25.1484 14.9047 25.391 14.6614 25.391 14.3611C25.391 14.061 25.1484 13.8176 24.8491 13.8176Z" fill="#516AD6"/>
<path d="M0.541992 18.131C0.841316 18.131 1.08398 17.8877 1.08398 17.5874C1.08398 17.2876 1.32709 17.0438 1.62598 17.0438H35.374C35.6729 17.0438 35.916 17.2876 35.916 17.5874C35.916 17.8877 36.1586 18.131 36.458 18.131C36.7574 18.131 37 17.8877 37 17.5874C37 16.6882 36.2705 15.9565 35.374 15.9565H34.8536C34.7653 15.7164 34.6195 15.4984 34.425 15.3249L32.592 13.6886L33.6612 11.4735C34.0706 10.6253 33.6486 9.60992 32.7644 9.30173L30.4467 8.49368L30.5893 6.03665C30.6439 5.09734 29.868 4.31989 28.9322 4.37454L26.4825 4.51762L25.6769 2.19295C25.3691 1.30438 24.356 0.883614 23.5117 1.29336L21.3031 2.36582L19.6719 0.527287C19.0473 -0.176451 17.9516 -0.175074 17.3283 0.527287L15.697 2.36582L13.4884 1.29336C12.6461 0.884266 11.6317 1.30264 11.3232 2.1928L10.5175 4.51762L8.06795 4.37454C7.1337 4.3196 6.35619 5.09589 6.41076 6.03665L6.55341 8.49368L4.23578 9.30173C3.34966 9.6105 2.93037 10.6269 3.33889 11.4735L4.40806 13.6886L2.57504 15.3249C2.38057 15.4985 2.23474 15.7164 2.14651 15.9565H1.62598C0.729377 15.9565 0 16.6882 0 17.5874C0 17.8877 0.242668 18.131 0.541992 18.131ZM5.43466 14.2277C5.61576 14.0661 5.66779 13.8035 5.56221 13.5847L4.31447 10.9998C4.18801 10.7378 4.31686 10.4246 4.59154 10.3287L7.29615 9.38573C7.52509 9.30593 7.67338 9.08333 7.65929 8.84066L7.49286 5.97345C7.47602 5.68373 7.71334 5.44338 8.00486 5.4599L10.8634 5.62683C11.1059 5.64097 11.3273 5.49223 11.4069 5.26268L12.3471 2.54985C12.442 2.27572 12.7537 2.14431 13.0161 2.27195L15.5933 3.52345C15.8114 3.6292 16.0732 3.57708 16.2344 3.39551L18.1379 1.25002C18.331 1.03257 18.6687 1.03213 18.8621 1.25002L20.7657 3.39551C20.9269 3.57708 21.1888 3.62927 21.4067 3.52345L23.9841 2.27188C24.2459 2.14489 24.5577 2.27478 24.6531 2.54985L25.5932 5.26268C25.6729 5.49223 25.8949 5.64104 26.1367 5.62683L28.9954 5.4599C29.286 5.44338 29.5242 5.68286 29.5073 5.97345L29.3409 8.84066C29.3268 9.08333 29.475 9.30593 29.7039 9.38573L32.4087 10.3287C32.6826 10.4243 32.8126 10.7371 32.6857 10.9997L31.4379 13.5847C31.3324 13.8036 31.3845 14.0661 31.5655 14.2277L33.5023 15.9566H8.74277C9.02099 10.8447 13.2487 6.69835 18.5 6.69835H18.5036C23.086 6.69835 27.1047 9.96089 28.0586 14.4556C28.1113 14.7048 28.3346 14.886 28.5883 14.886C28.6266 14.886 28.6642 14.8824 28.7017 14.8737C28.9937 14.8115 29.1809 14.5222 29.1187 14.2293C29.1187 14.2286 29.1187 14.2286 29.1187 14.2278C28.0716 9.29752 23.699 5.61103 18.5001 5.61103C12.7049 5.61103 7.93845 10.1938 7.6569 15.9565H3.49787L5.43466 14.2277Z" fill="#516AD6"/>
<path d="M36.458 21.3928C36.1586 21.3928 35.916 21.6361 35.916 21.9364C35.916 22.2362 35.6729 22.4801 35.374 22.4801H1.62598C1.32709 22.4801 1.08398 22.2362 1.08398 21.9364C1.08398 21.6361 0.841316 21.3928 0.541992 21.3928C0.242668 21.3928 0 21.6361 0 21.9364C0 22.8357 0.729377 23.5673 1.62598 23.5673H5.7926L6.56302 24.3401L6.41076 26.9637C6.35641 27.9007 7.12944 28.6805 8.06795 28.6258L10.5175 28.4828L11.3232 30.8074C11.6312 31.6962 12.6444 32.1169 13.4884 31.707L15.697 30.6346L17.3283 32.4731C17.9519 33.176 19.0485 33.1755 19.6719 32.4731L21.3031 30.6346L23.5116 31.707C24.3558 32.117 25.3691 31.696 25.6768 30.8076L26.4825 28.4828L28.932 28.6259C29.8733 28.6808 30.6434 27.8981 30.5892 26.9637L30.437 24.3401L31.2075 23.5674H35.374C36.2705 23.5674 37 22.8357 37 21.9365C37 21.6361 36.7574 21.3928 36.458 21.3928ZM29.3407 24.1597L29.5071 27.0269C29.524 27.3166 29.2867 27.5573 28.9951 27.5405L26.1365 27.3735C25.8947 27.3593 25.6727 27.5081 25.5931 27.7377L24.6529 30.4506C24.5574 30.7257 24.2455 30.8556 23.9839 30.7284L21.4066 29.4769C21.1884 29.371 20.9268 29.4233 20.7656 29.6049L18.862 31.7504C18.669 31.9678 18.3312 31.9682 18.1379 31.7504L16.2343 29.6049C16.0731 29.4233 15.8114 29.3712 15.5932 29.4769L13.016 30.7285C12.7531 30.856 12.4419 30.7245 12.347 30.4505L11.4068 27.7377C11.3273 27.5081 11.1057 27.3588 10.8634 27.3735L8.00486 27.5405C7.71248 27.5566 7.47602 27.3163 7.49286 27.0269L7.65929 24.1597C7.66832 24.0048 7.61087 23.8534 7.50146 23.7437L7.32557 23.5673H25.2636C23.4498 25.3176 21.0435 26.302 18.4999 26.302C16.2474 26.302 14.1293 25.5512 12.3747 24.132C12.1447 23.9447 11.8038 23.977 11.6123 24.2131C11.4251 24.4465 11.4613 24.7893 11.694 24.9778C11.6947 24.9778 11.6947 24.9786 11.6947 24.9786C13.5895 26.5124 15.9682 27.3893 18.4985 27.3893L18.4999 27.3857L18.5014 27.3893C21.6991 27.3893 24.6903 25.9851 26.7524 23.5674H29.6743L29.4984 23.7438C29.3891 23.8534 29.3317 24.0048 29.3407 24.1597Z" fill="#516AD6"/>
<path d="M3.16922 18.6747H3.56689C3.86629 18.6747 4.10889 18.4315 4.10889 18.1311C4.10889 17.8309 3.86636 17.5876 3.56689 17.5876H3.16922C1.97394 17.5876 1.00146 18.563 1.00146 19.7618C1.00146 20.9607 1.97394 21.936 3.16922 21.936C3.74821 21.936 4.29244 21.7099 4.7019 21.2992C5.11136 20.8885 5.3369 20.3427 5.3369 19.7618C5.3369 19.4616 5.09444 19.2183 4.79498 19.2183H3.8561C3.55678 19.2183 3.31411 19.4615 3.31411 19.7618C3.31411 20.0621 3.5567 20.3054 3.8561 20.3054H4.10838C4.06155 20.3867 4.00367 20.4622 3.93567 20.5305C3.73079 20.7359 3.45864 20.8489 3.16922 20.8489C2.57151 20.8489 2.08538 20.3612 2.08538 19.7618C2.08538 19.1625 2.57151 18.6747 3.16922 18.6747Z" fill="#516AD6"/>
<path d="M6.31096 17.5876C6.01171 17.5876 5.76904 17.8309 5.76904 18.1311V20.0988C5.76904 21.112 6.59547 21.936 7.6116 21.936C8.62758 21.936 9.45408 21.112 9.45408 20.0988V18.1311C9.45408 17.831 9.21149 17.5876 8.91223 17.5876C8.61291 17.5876 8.37024 17.8309 8.37024 18.1311V20.0988C8.37024 20.5124 8.02987 20.8489 7.61153 20.8489C7.19318 20.8489 6.85281 20.5124 6.85281 20.0988V18.1311C6.85295 17.8309 6.61021 17.5876 6.31096 17.5876Z" fill="#516AD6"/>
<path d="M11.4782 17.5876C11.2523 17.5876 11.0501 17.7281 10.9708 17.9402L9.75146 21.2016C9.64631 21.4827 9.78846 21.796 10.0686 21.9013C10.3489 22.0065 10.6611 21.8644 10.7664 21.5833L10.8377 21.3924H12.1187L12.1901 21.5833C12.2957 21.8659 12.6094 22.0063 12.8878 21.9013C13.1679 21.796 13.3099 21.4827 13.2048 21.2016L11.9856 17.9402C11.9062 17.7281 11.704 17.5876 11.4782 17.5876ZM11.244 20.3054L11.4781 19.6791L11.7122 20.3054H11.244Z" fill="#516AD6"/>
<path d="M17.0695 19.2183C17.0695 18.3192 16.3442 17.5876 15.4528 17.5876H14.3959C14.0967 17.5876 13.854 17.8309 13.854 18.1311V21.3925C13.854 21.6928 14.0966 21.9361 14.3959 21.9361C14.6952 21.9361 14.9379 21.6928 14.9379 21.3925V20.849H15.2269L16.1427 21.7752C16.2486 21.8824 16.3881 21.9361 16.5275 21.9361C16.6654 21.9361 16.8034 21.8835 16.9091 21.7785C17.1216 21.5671 17.123 21.2229 16.9124 21.0098L16.4268 20.5187C16.8169 20.2207 17.0695 19.7487 17.0695 19.2183ZM15.4528 19.7617H14.9379V18.6747H15.4528C15.7465 18.6747 15.9856 18.9184 15.9856 19.2182C15.9856 19.5179 15.7466 19.7617 15.4528 19.7617Z" fill="#516AD6"/>
<path d="M19.3723 17.5876C19.1464 17.5876 18.9442 17.7281 18.8649 17.9402L17.6455 21.2016C17.5403 21.4827 17.6825 21.796 17.9626 21.9013C18.243 22.0065 18.5552 21.8644 18.6604 21.5833L18.7318 21.3924H20.0129L20.0843 21.5833C20.1658 21.8015 20.3723 21.936 20.5917 21.936C20.6549 21.936 20.7192 21.925 20.7819 21.9013C21.062 21.796 21.204 21.4827 21.0989 21.2016L19.8796 17.9402C19.8003 17.7281 19.5981 17.5876 19.3723 17.5876ZM19.138 20.3054L19.3722 19.6791L19.6062 20.3054H19.138Z" fill="#516AD6"/>
<path d="M24.0603 18.1312V19.7322L22.6547 17.8099C22.5161 17.6205 22.2718 17.5416 22.0491 17.6148C21.8263 17.6879 21.6758 17.8964 21.6758 18.1313V21.3926C21.6758 21.6929 21.9184 21.9362 22.2177 21.9362C22.517 21.9362 22.7597 21.6929 22.7597 21.3926V19.7917L24.1652 21.714C24.4725 22.1344 25.1442 21.9203 25.1442 21.3925V18.1311C25.1442 17.831 24.9016 17.5876 24.6023 17.5876C24.3029 17.5877 24.0603 17.831 24.0603 18.1312Z" fill="#516AD6"/>
<path d="M27.2234 21.936C27.5227 21.936 27.7653 21.6928 27.7653 21.3925V18.6747H28.4519C28.7511 18.6747 28.9938 18.4315 28.9938 18.1311C28.9938 17.8309 28.7512 17.5876 28.4519 17.5876H25.9951C25.6958 17.5876 25.4531 17.8309 25.4531 18.1311C25.4531 18.4315 25.6957 18.6747 25.9951 18.6747H26.6816V21.3925C26.6816 21.6928 26.9242 21.936 27.2234 21.936Z" fill="#516AD6"/>
<path d="M31.5158 18.6747C31.8151 18.6747 32.0577 18.4315 32.0577 18.1311C32.0577 17.8309 31.8152 17.5876 31.5158 17.5876H29.8539C29.5547 17.5876 29.312 17.8309 29.312 18.1311V21.3925C29.312 21.6928 29.5546 21.936 29.8539 21.936H31.5158C31.8151 21.936 32.0577 21.6928 32.0577 21.3925C32.0577 21.0922 31.8151 20.8489 31.5158 20.8489H30.3959V20.3054H31.0823C31.3816 20.3054 31.6241 20.0621 31.6241 19.7618C31.6241 19.4615 31.3816 19.2183 31.0823 19.2183H30.3959V18.6747H31.5158Z" fill="#516AD6"/>
<path d="M34.8786 18.6747C35.1779 18.6747 35.4205 18.4315 35.4205 18.1311C35.4205 17.8309 35.178 17.5876 34.8786 17.5876H33.2167C32.9175 17.5876 32.6748 17.8309 32.6748 18.1311V21.3925C32.6748 21.6928 32.9174 21.936 33.2167 21.936H34.8786C35.1779 21.936 35.4205 21.6928 35.4205 21.3925C35.4205 21.0922 35.1779 20.8489 34.8786 20.8489H33.7586V20.3054H34.4451C34.7444 20.3054 34.9869 20.0621 34.9869 19.7618C34.9869 19.4615 34.7444 19.2183 34.4451 19.2183H33.7586V18.6747H34.8786Z" fill="#516AD6"/>
</svg>
