<svg width="35" height="32" viewBox="0 0 35 32" fill="none" xmlns="http://www.w3.org/2000/svg">
<path d="M34.1532 6.55776C33.6102 5.27449 32.8271 4.11159 31.848 3.13418C30.8681 2.15385 29.7127 1.3748 28.4448 0.839386C27.13 0.281991 25.7199 -0.0033152 24.2962 2.90627e-05C22.2989 2.90627e-05 20.3501 0.558222 18.6567 1.61259C18.2515 1.86481 17.8666 2.14184 17.502 2.44367C17.1374 2.14184 16.7525 1.86481 16.3474 1.61259C14.6539 0.558222 12.7052 2.90627e-05 10.7078 2.90627e-05C9.26958 2.90627e-05 7.8759 0.281193 6.5592 0.839386C5.28706 1.37691 4.14052 2.15011 3.15603 3.13418C2.17558 4.11049 1.39237 5.27366 0.850792 6.55776C0.287649 7.89329 0 9.31152 0 10.7711C0 12.148 0.275495 13.5827 0.822432 15.0423C1.28024 16.2621 1.93656 17.5273 2.7752 18.8049C4.10406 20.8268 5.93123 22.9356 8.20001 25.0732C11.9597 28.6167 15.6829 31.0645 15.8409 31.1637L16.8011 31.7922C17.2265 32.0693 17.7734 32.0693 18.1988 31.7922L19.159 31.1637C19.317 31.0604 23.0362 28.6167 26.7999 25.0732C29.0687 22.9356 30.8959 20.8268 32.2248 18.8049C33.0634 17.5273 33.7238 16.2621 34.1775 15.0423C34.7245 13.5827 35 12.148 35 10.7711C35.004 9.31152 34.7164 7.89329 34.1532 6.55776Z" fill="#FF1A1A"/>
</svg>
