<svg width="26" height="32" viewBox="0 0 26 32" fill="none" xmlns="http://www.w3.org/2000/svg">
<path d="M10.3343 2.98356C10.4698 1.08034 12.3194 -0.391344 14.3129 0.0931119L14.8571 0.227457C15.8226 0.463578 16.6796 1.15566 16.9673 2.19174C17.4261 3.85273 18.0788 7.30295 17.0966 11.372C17.4037 11.3306 17.7117 11.2959 18.0204 11.2682C19.5071 11.1358 21.5006 11.1216 23.2667 11.6956C24.3469 12.0478 25.3394 13.0818 25.769 14.2868C26.1527 15.3697 26.1026 16.6521 25.2811 17.8144C25.402 18.0566 25.4958 18.307 25.5688 18.5533C25.7294 19.1029 25.8044 19.7075 25.8044 20.2957C25.8044 20.884 25.7294 21.4885 25.5688 22.0381C25.4875 22.3129 25.3811 22.5938 25.2352 22.8605C25.5876 23.6482 25.4583 24.5276 25.2289 25.1973C24.9941 25.8585 24.6504 26.478 24.2113 27.0313C24.3239 27.3407 24.3698 27.6664 24.3698 27.9778C24.3698 28.5986 24.1842 29.25 23.8423 29.8342C23.1458 31.027 21.7633 32 19.8095 32H12.5112C11.2497 32 10.2801 31.8351 9.45433 31.5563C8.74431 31.3031 8.0658 30.9727 7.43168 30.5711L7.33159 30.51C6.28065 29.8851 5.24847 29.2704 3.01938 29.0403C1.42211 28.8734 0 27.6155 0 25.8934V17.7513C0 16.0211 1.42837 14.8364 2.82963 14.4639C4.59997 13.9917 6.11174 12.862 7.27529 11.5938C8.44301 10.3176 9.18117 8.98837 9.44182 8.25761C9.85678 7.08718 10.1842 5.12494 10.3343 2.9856V2.98356Z" fill="#2F80ED"/>
</svg>
