<svg width="134" height="166" viewBox="0 0 134 166" fill="none" xmlns="http://www.w3.org/2000/svg">
<mask id="path-1-outside-1" maskUnits="userSpaceOnUse" x="0" y="0" width="134" height="166" fill="black">
<rect fill="white" width="134" height="166"/>
<path d="M114.482 15H35.4184C32.9236 15 30.9005 17.0296 30.9005 19.5333V34.3174C30.7328 34.2417 30.5594 34.1742 30.3764 34.123C28.4526 33.5885 26.4611 34.7195 25.9285 36.6507C24.7719 40.845 24.2717 44.4952 24.2717 47.6881C24.2342 54.7383 26.8492 59.5695 29.6589 62.3017C30.0773 62.7138 30.4929 63.0769 30.9005 63.4051V68.2848L26.0274 81.3181C25.1491 80.8349 24.0138 80.3652 22.3823 80.338C22.367 80.3376 22.3507 80.3398 22.3353 80.3394C20.8562 80.3108 19.0372 80.9831 17.8856 82.0593C17.8698 82.0734 17.8531 82.0847 17.8377 82.0988C17.8332 82.1033 17.8291 82.1078 17.8242 82.1119L17.8228 82.1133C17.8201 82.116 17.8174 82.1192 17.8147 82.1219C17.6895 82.2366 17.5725 82.3576 17.46 82.4805C17.4383 82.5036 17.4171 82.5267 17.3963 82.5494C16.1512 83.908 15.7156 85.2821 15.4129 86.483C15.0998 87.8489 15.0041 89.1907 15 90.7411C15.0163 95.2396 15.8995 101.661 18.0126 111.775C18.5737 114.442 20.9194 116.273 23.5326 116.273C23.9189 116.273 24.311 116.233 24.7041 116.15C27.756 115.505 29.7082 112.498 29.0653 109.436C28.4206 106.387 27.9069 103.7 27.5043 101.355C26.3595 100.772 25.389 99.8549 24.7434 98.6917L24.6833 98.5861C24.635 98.5026 24.5609 98.3712 24.4642 98.2053C24.2686 97.8675 23.9821 97.3847 23.637 96.8298C23.2507 96.2047 22.2703 94.6575 21.2745 93.3804L21.3802 92.0812C21.5357 92.2607 21.6983 92.4543 21.8632 92.6655C22.7424 93.7707 23.7038 95.2192 24.4032 96.3493C24.7547 96.9155 25.0461 97.406 25.2435 97.7469C25.3429 97.9174 25.4193 98.0511 25.4681 98.1377C25.5178 98.2238 25.5327 98.251 25.5327 98.251C25.9786 99.0544 26.5967 99.6963 27.3078 100.178C28.2435 100.812 29.3454 101.162 30.4717 101.162C30.6145 101.162 30.7572 101.146 30.9005 101.136C31.6703 101.076 32.4393 100.864 33.1603 100.471C33.178 100.461 33.196 100.456 33.2132 100.446C33.4721 100.301 33.7097 100.134 33.9361 99.9574C34.6784 101.601 35.9669 105.401 35.9791 112.186C35.9791 117.073 35.2851 123.518 33.1603 131.756C32.9697 132.495 32.7718 133.243 32.5576 134.011C32.1217 135.574 32.3882 137.165 33.1603 138.455C33.8769 139.652 35.0281 140.59 36.4738 140.996C36.9825 141.139 37.4953 141.207 37.9991 141.207C40.469 141.208 42.7366 139.57 43.4351 137.067C46.2764 126.88 47.274 118.679 47.274 112.186C47.2862 106.478 46.4982 102.096 45.5499 98.9007C45.5653 98.8635 45.5833 98.8286 45.5973 98.7905L55.8066 71.4835C56.0496 71.2627 56.2683 71.0075 56.4504 70.7147L56.4495 70.7138C56.5154 70.605 58.7116 67.0676 60.9322 61.8447C63.1401 56.6115 65.428 49.7167 65.4456 42.6202C65.4456 39.6718 65.0363 36.673 63.9764 33.7934C63.2851 31.9139 61.2055 30.9546 59.3337 31.6491C57.461 32.3427 56.5046 34.429 57.1958 36.3076C57.7755 37.8788 58.0913 39.6119 58.1839 41.4511C62.2772 45.0646 63.1839 51.2639 60.0787 55.9392C58.5069 58.3069 56.1779 59.895 53.5995 60.5523C52.944 61.9948 52.3133 63.2555 51.782 64.2633L38.0646 59.098C37.8455 59.0155 37.6227 58.9575 37.4004 58.9207C37.0114 58.7748 35.6841 58.1936 34.4516 56.8431C34.0147 56.3553 33.5692 55.7746 33.1608 55.0574V19.5338C33.1608 18.283 34.1733 17.2671 35.4184 17.2671H114.482C115.729 17.2671 116.741 18.283 116.741 19.5338V146.467C116.741 147.717 115.729 148.733 114.482 148.733H35.418C34.1728 148.733 33.1603 147.717 33.1603 146.467V139.966C32.8296 139.601 32.5328 139.201 32.2857 138.76C31.4282 137.23 31.2154 135.457 31.6875 133.766C32.2473 131.759 32.7384 129.802 33.1603 127.897V101.473C32.4452 101.797 31.6812 101.99 30.9005 102.042V146.467C30.9005 148.97 32.9236 151 35.4184 151H114.482C116.977 151 119 148.97 119 146.467V19.5333C119 17.0296 116.978 15 114.482 15Z"/>
<path d="M69.2136 40.8322C72.8361 44.0228 79.5538 57.5847 79.5538 57.5847C79.5538 57.5847 86.2698 71.1484 86.6167 75.9719C86.9628 80.7963 93.8473 73.0389 99.581 70.1806C105.315 67.3205 115.634 66.5 112.012 63.3094C108.389 60.1193 101.671 46.5569 101.671 46.5569C101.671 46.5569 94.9546 32.9946 94.609 28.1697C94.2625 23.3458 87.3785 31.1033 81.6443 33.962C75.9097 36.8211 65.5907 37.6426 69.2136 40.8322Z"/>
<path d="M42.4112 44.1262C39.2992 48.8141 40.5633 55.1454 45.2349 58.268C47.9506 60.0831 51.2171 60.4045 54.0901 59.4425C56.1588 58.7503 58.0248 57.3962 59.3273 55.4337C62.0155 51.385 61.4317 46.1132 58.2141 42.7395C57.7067 42.2073 57.1401 41.7186 56.5045 41.2938C51.8338 38.1717 45.5236 39.4397 42.4112 44.1262Z"/>
</mask>
<path d="M114.482 15H35.4184C32.9236 15 30.9005 17.0296 30.9005 19.5333V34.3174C30.7328 34.2417 30.5594 34.1742 30.3764 34.123C28.4526 33.5885 26.4611 34.7195 25.9285 36.6507C24.7719 40.845 24.2717 44.4952 24.2717 47.6881C24.2342 54.7383 26.8492 59.5695 29.6589 62.3017C30.0773 62.7138 30.4929 63.0769 30.9005 63.4051V68.2848L26.0274 81.3181C25.1491 80.8349 24.0138 80.3652 22.3823 80.338C22.367 80.3376 22.3507 80.3398 22.3353 80.3394C20.8562 80.3108 19.0372 80.9831 17.8856 82.0593C17.8698 82.0734 17.8531 82.0847 17.8377 82.0988C17.8332 82.1033 17.8291 82.1078 17.8242 82.1119L17.8228 82.1133C17.8201 82.116 17.8174 82.1192 17.8147 82.1219C17.6895 82.2366 17.5725 82.3576 17.46 82.4805C17.4383 82.5036 17.4171 82.5267 17.3963 82.5494C16.1512 83.908 15.7156 85.2821 15.4129 86.483C15.0998 87.8489 15.0041 89.1907 15 90.7411C15.0163 95.2396 15.8995 101.661 18.0126 111.775C18.5737 114.442 20.9194 116.273 23.5326 116.273C23.9189 116.273 24.311 116.233 24.7041 116.15C27.756 115.505 29.7082 112.498 29.0653 109.436C28.4206 106.387 27.9069 103.7 27.5043 101.355C26.3595 100.772 25.389 99.8549 24.7434 98.6917L24.6833 98.5861C24.635 98.5026 24.5609 98.3712 24.4642 98.2053C24.2686 97.8675 23.9821 97.3847 23.637 96.8298C23.2507 96.2047 22.2703 94.6575 21.2745 93.3804L21.3802 92.0812C21.5357 92.2607 21.6983 92.4543 21.8632 92.6655C22.7424 93.7707 23.7038 95.2192 24.4032 96.3493C24.7547 96.9155 25.0461 97.406 25.2435 97.7469C25.3429 97.9174 25.4193 98.0511 25.4681 98.1377C25.5178 98.2238 25.5327 98.251 25.5327 98.251C25.9786 99.0544 26.5967 99.6963 27.3078 100.178C28.2435 100.812 29.3454 101.162 30.4717 101.162C30.6145 101.162 30.7572 101.146 30.9005 101.136C31.6703 101.076 32.4393 100.864 33.1603 100.471C33.178 100.461 33.196 100.456 33.2132 100.446C33.4721 100.301 33.7097 100.134 33.9361 99.9574C34.6784 101.601 35.9669 105.401 35.9791 112.186C35.9791 117.073 35.2851 123.518 33.1603 131.756C32.9697 132.495 32.7718 133.243 32.5576 134.011C32.1217 135.574 32.3882 137.165 33.1603 138.455C33.8769 139.652 35.0281 140.59 36.4738 140.996C36.9825 141.139 37.4953 141.207 37.9991 141.207C40.469 141.208 42.7366 139.57 43.4351 137.067C46.2764 126.88 47.274 118.679 47.274 112.186C47.2862 106.478 46.4982 102.096 45.5499 98.9007C45.5653 98.8635 45.5833 98.8286 45.5973 98.7905L55.8066 71.4835C56.0496 71.2627 56.2683 71.0075 56.4504 70.7147L56.4495 70.7138C56.5154 70.605 58.7116 67.0676 60.9322 61.8447C63.1401 56.6115 65.428 49.7167 65.4456 42.6202C65.4456 39.6718 65.0363 36.673 63.9764 33.7934C63.2851 31.9139 61.2055 30.9546 59.3337 31.6491C57.461 32.3427 56.5046 34.429 57.1958 36.3076C57.7755 37.8788 58.0913 39.6119 58.1839 41.4511C62.2772 45.0646 63.1839 51.2639 60.0787 55.9392C58.5069 58.3069 56.1779 59.895 53.5995 60.5523C52.944 61.9948 52.3133 63.2555 51.782 64.2633L38.0646 59.098C37.8455 59.0155 37.6227 58.9575 37.4004 58.9207C37.0114 58.7748 35.6841 58.1936 34.4516 56.8431C34.0147 56.3553 33.5692 55.7746 33.1608 55.0574V19.5338C33.1608 18.283 34.1733 17.2671 35.4184 17.2671H114.482C115.729 17.2671 116.741 18.283 116.741 19.5338V146.467C116.741 147.717 115.729 148.733 114.482 148.733H35.418C34.1728 148.733 33.1603 147.717 33.1603 146.467V139.966C32.8296 139.601 32.5328 139.201 32.2857 138.76C31.4282 137.23 31.2154 135.457 31.6875 133.766C32.2473 131.759 32.7384 129.802 33.1603 127.897V101.473C32.4452 101.797 31.6812 101.99 30.9005 102.042V146.467C30.9005 148.97 32.9236 151 35.4184 151H114.482C116.977 151 119 148.97 119 146.467V19.5333C119 17.0296 116.978 15 114.482 15Z" fill="#617EFF"/>
<path d="M69.2136 40.8322C72.8361 44.0228 79.5538 57.5847 79.5538 57.5847C79.5538 57.5847 86.2698 71.1484 86.6167 75.9719C86.9628 80.7963 93.8473 73.0389 99.581 70.1806C105.315 67.3205 115.634 66.5 112.012 63.3094C108.389 60.1193 101.671 46.5569 101.671 46.5569C101.671 46.5569 94.9546 32.9946 94.609 28.1697C94.2625 23.3458 87.3785 31.1033 81.6443 33.962C75.9097 36.8211 65.5907 37.6426 69.2136 40.8322Z" fill="#617EFF"/>
<path d="M42.4112 44.1262C39.2992 48.8141 40.5633 55.1454 45.2349 58.268C47.9506 60.0831 51.2171 60.4045 54.0901 59.4425C56.1588 58.7503 58.0248 57.3962 59.3273 55.4337C62.0155 51.385 61.4317 46.1132 58.2141 42.7395C57.7067 42.2073 57.1401 41.7186 56.5045 41.2938C51.8338 38.1717 45.5236 39.4397 42.4112 44.1262Z" fill="#617EFF"/>
<path d="M114.482 15H35.4184C32.9236 15 30.9005 17.0296 30.9005 19.5333V34.3174C30.7328 34.2417 30.5594 34.1742 30.3764 34.123C28.4526 33.5885 26.4611 34.7195 25.9285 36.6507C24.7719 40.845 24.2717 44.4952 24.2717 47.6881C24.2342 54.7383 26.8492 59.5695 29.6589 62.3017C30.0773 62.7138 30.4929 63.0769 30.9005 63.4051V68.2848L26.0274 81.3181C25.1491 80.8349 24.0138 80.3652 22.3823 80.338C22.367 80.3376 22.3507 80.3398 22.3353 80.3394C20.8562 80.3108 19.0372 80.9831 17.8856 82.0593C17.8698 82.0734 17.8531 82.0847 17.8377 82.0988C17.8332 82.1033 17.8291 82.1078 17.8242 82.1119L17.8228 82.1133C17.8201 82.116 17.8174 82.1192 17.8147 82.1219C17.6895 82.2366 17.5725 82.3576 17.46 82.4805C17.4383 82.5036 17.4171 82.5267 17.3963 82.5494C16.1512 83.908 15.7156 85.2821 15.4129 86.483C15.0998 87.8489 15.0041 89.1907 15 90.7411C15.0163 95.2396 15.8995 101.661 18.0126 111.775C18.5737 114.442 20.9194 116.273 23.5326 116.273C23.9189 116.273 24.311 116.233 24.7041 116.15C27.756 115.505 29.7082 112.498 29.0653 109.436C28.4206 106.387 27.9069 103.7 27.5043 101.355C26.3595 100.772 25.389 99.8549 24.7434 98.6917L24.6833 98.5861C24.635 98.5026 24.5609 98.3712 24.4642 98.2053C24.2686 97.8675 23.9821 97.3847 23.637 96.8298C23.2507 96.2047 22.2703 94.6575 21.2745 93.3804L21.3802 92.0812C21.5357 92.2607 21.6983 92.4543 21.8632 92.6655C22.7424 93.7707 23.7038 95.2192 24.4032 96.3493C24.7547 96.9155 25.0461 97.406 25.2435 97.7469C25.3429 97.9174 25.4193 98.0511 25.4681 98.1377C25.5178 98.2238 25.5327 98.251 25.5327 98.251C25.9786 99.0544 26.5967 99.6963 27.3078 100.178C28.2435 100.812 29.3454 101.162 30.4717 101.162C30.6145 101.162 30.7572 101.146 30.9005 101.136C31.6703 101.076 32.4393 100.864 33.1603 100.471C33.178 100.461 33.196 100.456 33.2132 100.446C33.4721 100.301 33.7097 100.134 33.9361 99.9574C34.6784 101.601 35.9669 105.401 35.9791 112.186C35.9791 117.073 35.2851 123.518 33.1603 131.756C32.9697 132.495 32.7718 133.243 32.5576 134.011C32.1217 135.574 32.3882 137.165 33.1603 138.455C33.8769 139.652 35.0281 140.59 36.4738 140.996C36.9825 141.139 37.4953 141.207 37.9991 141.207C40.469 141.208 42.7366 139.57 43.4351 137.067C46.2764 126.88 47.274 118.679 47.274 112.186C47.2862 106.478 46.4982 102.096 45.5499 98.9007C45.5653 98.8635 45.5833 98.8286 45.5973 98.7905L55.8066 71.4835C56.0496 71.2627 56.2683 71.0075 56.4504 70.7147L56.4495 70.7138C56.5154 70.605 58.7116 67.0676 60.9322 61.8447C63.1401 56.6115 65.428 49.7167 65.4456 42.6202C65.4456 39.6718 65.0363 36.673 63.9764 33.7934C63.2851 31.9139 61.2055 30.9546 59.3337 31.6491C57.461 32.3427 56.5046 34.429 57.1958 36.3076C57.7755 37.8788 58.0913 39.6119 58.1839 41.4511C62.2772 45.0646 63.1839 51.2639 60.0787 55.9392C58.5069 58.3069 56.1779 59.895 53.5995 60.5523C52.944 61.9948 52.3133 63.2555 51.782 64.2633L38.0646 59.098C37.8455 59.0155 37.6227 58.9575 37.4004 58.9207C37.0114 58.7748 35.6841 58.1936 34.4516 56.8431C34.0147 56.3553 33.5692 55.7746 33.1608 55.0574V19.5338C33.1608 18.283 34.1733 17.2671 35.4184 17.2671H114.482C115.729 17.2671 116.741 18.283 116.741 19.5338V146.467C116.741 147.717 115.729 148.733 114.482 148.733H35.418C34.1728 148.733 33.1603 147.717 33.1603 146.467V139.966C32.8296 139.601 32.5328 139.201 32.2857 138.76C31.4282 137.23 31.2154 135.457 31.6875 133.766C32.2473 131.759 32.7384 129.802 33.1603 127.897V101.473C32.4452 101.797 31.6812 101.99 30.9005 102.042V146.467C30.9005 148.97 32.9236 151 35.4184 151H114.482C116.977 151 119 148.97 119 146.467V19.5333C119 17.0296 116.978 15 114.482 15Z" stroke="white" stroke-width="30" mask="url(#path-1-outside-1)"/>
<path d="M69.2136 40.8322C72.8361 44.0228 79.5538 57.5847 79.5538 57.5847C79.5538 57.5847 86.2698 71.1484 86.6167 75.9719C86.9628 80.7963 93.8473 73.0389 99.581 70.1806C105.315 67.3205 115.634 66.5 112.012 63.3094C108.389 60.1193 101.671 46.5569 101.671 46.5569C101.671 46.5569 94.9546 32.9946 94.609 28.1697C94.2625 23.3458 87.3785 31.1033 81.6443 33.962C75.9097 36.8211 65.5907 37.6426 69.2136 40.8322Z" stroke="white" stroke-width="30" mask="url(#path-1-outside-1)"/>
<path d="M42.4112 44.1262C39.2992 48.8141 40.5633 55.1454 45.2349 58.268C47.9506 60.0831 51.2171 60.4045 54.0901 59.4425C56.1588 58.7503 58.0248 57.3962 59.3273 55.4337C62.0155 51.385 61.4317 46.1132 58.2141 42.7395C57.7067 42.2073 57.1401 41.7186 56.5045 41.2938C51.8338 38.1717 45.5236 39.4397 42.4112 44.1262Z" stroke="white" stroke-width="30" mask="url(#path-1-outside-1)"/>
</svg>
