<?xml version="1.0" encoding="utf-8"?>
<!-- Generator: Adobe Illustrator 22.0.1, SVG Export Plug-In . SVG Version: 6.00 Build 0)  -->
<svg version="1.1" id="Layer_1" xmlns="http://www.w3.org/2000/svg" xmlns:xlink="http://www.w3.org/1999/xlink" x="0px" y="0px"
	 viewBox="0 0 433.9 306.1" style="enable-background:new 0 0 433.9 306.1;" xml:space="preserve">
<style type="text/css">
	.st0{fill:#F0F7F5;}
	.st1{fill:#F7A45A;}
	.st2{fill:#1D1848;}
	.st3{fill:#EEAF50;}
	.st4{fill:#FCE3CD;}
	.st5{fill:#968DA7;}
	.st6{fill:#CEEAF7;}
	.st7{fill:#332F2C;}
	.st8{fill:#7B4D2E;}
	.st9{fill:#8E603D;}
	.st10{fill:#916646;}
	.st11{fill:#EABFA0;}
	.st12{fill:#DAA786;}
	.st13{fill:#D2E4ED;}
	.st14{fill:#D36F49;}
	.st15{fill:#E2B495;}
</style>
<g>
	<path class="st0" d="M54.9,143.1c2.6-41.5,5.3-82.9,7.6-124.4C62.9,10,65.4,6.8,74.7,7.4c75.4,5,150.8,9.7,226.2,14
		c9.4,0.5,11.3,4,10.7,12.7c-5.4,83.5-10.7,167.1-15.5,250.7c-0.6,9.8-4.2,11.8-13.3,11.2c-74.7-4.9-149.5-9.6-224.3-13.9
		c-10.3-0.6-12.4-4.3-11.7-13.8C50,226.7,52.3,184.9,54.9,143.1z M209.2,96.5c-14.3-1.4-28.1-6.6-42.6-6.6c-1.4-4-7.1-4.9-7.2-9.9
		c7.7-1,6.9-6.6,6.2-11.8c-1.7-12.2-6.1-23.9-4.2-36.6c1-6.9-4.1-5.9-8.4-3.9c-11.8,5.5-23.3,11.8-36.4,13.8
		c-10.9,1.7-22,2.8-32.9,4.5c-4.2,0.7-10,1.1-7.4,8.2c3.3,9,4.1,18.4,4.6,27.8c0.3,5.6,3.1,8.4,8.8,7.4c6.7-1.2,13.4-2.6,20.1-3.9
		c-0.1,4.1-3.1,7-4.3,10.6c-1.4,4.3-5,8.7-0.8,13.4c-1,6.2-2,12.3-0.8,18.6c-4.9,2.8-0.1,3.7,1.1,5.3c1.9,12.7,3.8,25.4,5.7,38.1
		c0,1.2,0,2.4,0,3.5c1.1,22.7,5.4,45.1,8.4,67.6c0.5,3.5-1.2,8.2,3.5,10.4c-0.1,4.6-0.5,9.1-0.3,13.7c0.2,3.5,0.6,7.6,5.5,7.8
		c4.6,0.2,5.9-3.5,6.8-7c1.3-4.9-0.5-9.6-1.9-14.2c2-1.5,1-3.5,0.9-5.4c-1.1-23.2,0.8-46.2,4.8-71.8c3.7,15.7,4.7,28.9,6.4,42.1
		c1.6,12.1,0.6,24.7,5.4,36.3c-0.2,4.9-0.7,9.8-0.4,14.6c0.2,3.1,0.9,6.8,5.1,7.2c4,0.4,5.8-2.5,7.2-5.5c2.7-5.7-0.5-10.7-2.1-15.9
		c2.2-31.9,5.8-63.8,4.1-96c5.2,4.2,10.3,8.4,15.5,12.7c0,4.3,3.7,5,6.6,6.1c17.2,6.6,28.5,2.4,40.4-15.1
		c6.5-10.5,14.3-19.6,24.4-26.8c4.2-3,6-2.6,7.7,1.8c-1.4,16.9,7.3,33.1,3,50.2c-0.3,1.1,0.6,2.4,1,3.7c9.5-3.7,3.8,7.7,10.1,8.9
		c-5-21.6-2.2-43.4-5.3-64.8c2.4-5.1-1.2-9.2-2.3-13.7c5.2,1.1,8.4-1.1,11.1-5.7c6.1-10.7,10-22.6,18.8-31.9c3.3-3.5,2.6-7-3.3-8.1
		c-11.1-2.2-22.4-4.1-32.4-9.8c-8.7-5-17.3-10.4-26.2-15.1c-3.4-1.8-8.9-5.4-10.7,0.8c-3.1,10.6-11.2,18.4-14.3,28.8
		c-3.8-0.6-7.5-1.1-11.5-1.7c2.2,6.8,7.8,10.1,13,13.9C209.6,94.1,209.4,95.3,209.2,96.5z M192.4,188.5c-2.7-0.5-4,0.3-4.9,1.8
		c-4.2,7.7-8.5,15.4-12.4,23.3c-1.7,3.3,0.2,5.9,3.2,7.1c14.1,5.6,25.6,15.4,38.2,23.5c7.2,4.6,11.7,3.4,15.2-4.6
		c3.1-7.1,5.3-14.7,11.4-20.2c6.3-5.8,2.6-9.4-3.6-10.1c-15.5-1.8-28.2-9.7-41.1-17.2C196.3,190.6,194,189.4,192.4,188.5z"/>
	<path class="st1" d="M164.1,158.9c1.8,32.1-1.9,64-4.1,96c-3.3-0.1-6.5-0.3-9.8-0.4c-4.8-11.7-3.8-24.2-5.4-36.3
		c-1.7-13.1-2.7-26.4-6.4-42.1c-4,25.7-5.9,48.7-4.8,71.8c0.1,1.9,1.1,3.9-0.9,5.4c-3.4-0.1-6.8-0.2-10.2-0.2
		c-4.7-2.2-3.1-6.9-3.5-10.4c-3-22.5-7.3-44.8-8.4-67.6c6.7,1.2,12.6-0.2,18.5-3.9c8.2-5.1,17.2-9.1,25.4-14.2
		C158.9,154.1,161.5,155.2,164.1,158.9z"/>
	<path class="st2" d="M109.7,85.5c-6.7,1.3-13.4,2.7-20.1,3.9c-5.7,1-8.5-1.7-8.8-7.4c-0.5-9.4-1.4-18.8-4.6-27.8
		c-2.6-7.1,3.2-7.5,7.4-8.2c10.9-1.8,22-2.8,32.9-4.5c13.1-2.1,24.6-8.3,36.4-13.8c4.3-2,9.4-2.9,8.4,3.9
		c-1.8,12.7,2.6,24.5,4.2,36.6c0.7,5.2,1.5,10.9-6.2,11.8c-7.3-1.5-13.5-6.5-21.3-6.1c0.8-2.4,1.8-4.8,2.4-7.3
		c1.7-6.9,4.4-14.2-4.3-18.4c-8.5-4.1-18.6-1.1-23.2,6.1c-1.5,2.4-2.2,4.1,1.5,4.6c-1,7.8-2.5,15.9,8.9,17.4
		C118.8,79.4,114.3,82.4,109.7,85.5z"/>
	<path class="st3" d="M265.3,121.8c1.1,4.5,4.7,8.6,2.3,13.7c-3,0.7-5.9,1.3-8.9,2c-1.7-4.4-3.5-4.8-7.7-1.8
		c-10.1,7.2-17.9,16.4-24.4,26.8c-11.1-5.5-20-13.4-26.7-23.8c12.6-9,17.4-21,13-32.3c-0.7-3.1-1.4-6.2-2.1-9.3
		c5.4,0.2,10.7,0.5,16.1,0.7c4.8-1.1,6.4,6.3,11.5,4.4c4.9,0.3,2.5,12.1,10.9,6.8C254.6,113.3,259.9,117.5,265.3,121.8z"/>
	<path class="st4" d="M192.4,188.5c1.6,0.9,3.9,2.1,6.1,3.4c12.9,7.6,25.6,15.4,41.1,17.2c6.2,0.7,9.9,4.4,3.6,10.1
		c-6.1,5.6-8.3,13.2-11.4,20.2c-3.5,8-8,9.2-15.2,4.6c-12.6-8-24.1-17.9-38.2-23.5c-3-1.2-4.9-3.8-3.2-7.1c4-7.8,8.2-15.5,12.4-23.3
		C188.4,188.8,189.8,188,192.4,188.5z"/>
	<path class="st5" d="M109.7,85.5c4.5-3.1,9-6.1,13.5-9.2c3.1-0.8,6.2-1.6,9.3-2.4c1.8,0,3.6,0,5.5,0c7.8-0.4,14.1,4.6,21.3,6.1
		c0.2,4.9,5.8,5.9,7.2,9.9c-7.5,0.4-13.6-7.2-21.2-4.3c5.9,8,13.6,12.2,23.7,11.3c1.1-0.1,2.2,1.2,3.4,1.9c-0.6,1-1.2,2-1.8,3.1
		c-6.3,1.3-11.8,3.3-11.5,11.3c-4.1,0.8-8.5,1.2-12.4,2.6c-10.7,3.8-21.2,8-31.8,12c0.6-8.4,2.6-17.5-10.4-18.1
		c-4.2-4.7-0.6-9.1,0.8-13.4C106.6,92.5,109.6,89.6,109.7,85.5z"/>
	<path class="st6" d="M265.3,121.8c-5.3-4.3-10.7-8.5-16-12.8c0.3-1.4,0.6-2.8,0.9-4.2c8.1-0.4,16.3-1.5,17.8-11.3
		c1.5-9.5-5.1-14.9-12.7-18.6c-10.2-5-20.2-3.4-29.6,2.5c-5.4,3.4-10.9,5.7-17.4,3.4c3.1-10.4,11.2-18.2,14.3-28.8
		c1.8-6.2,7.3-2.6,10.7-0.8c8.9,4.7,17.4,10.1,26.2,15.1c10,5.8,21.3,7.6,32.4,9.8c5.9,1.2,6.6,4.6,3.3,8.1
		c-8.7,9.3-12.7,21.2-18.8,31.9C273.7,120.7,270.5,122.8,265.3,121.8z"/>
	<path class="st2" d="M199.9,138.7c6.7,10.4,15.6,18.4,26.7,23.8c-11.9,17.5-23.2,21.7-40.4,15.1c-2.9-1.1-6.5-1.8-6.6-6.1
		c4.3-7.1,5.2-15.1,6.2-23.1c1-4.1-2.3-8.1-0.5-12.3C190.1,137,195,137.9,199.9,138.7z"/>
	<path class="st7" d="M208.3,80.8c6.5,2.3,12,0,17.4-3.4c9.4-5.9,19.3-7.4,29.6-2.5c7.7,3.7,14.2,9.1,12.7,18.6
		c-1.5,9.8-9.7,10.9-17.8,11.3c4.5-3.9-0.6-9.3,2.4-13.8c1.9-2.8,4.5-7.5-1.7-9.4c-4.9-1.5-8.1,0.7-10.2,5.2
		c-2.4,4.9-1.4,10.3-2.3,15.4c-5.1,1.9-6.7-5.5-11.5-4.4c-3.9-7.7-11.5-2.7-17-4.9c-5.2-3.8-10.9-7.1-13-13.9
		C200.8,79.6,204.5,80.2,208.3,80.8z"/>
	<path class="st8" d="M185.3,136.2c-1.8,4.2,1.5,8.1,0.5,12.3c-9-2.6-16.3-9.4-26.2-9.6c-1.5-4.8-1.9-11.1-9.1-9.9
		c-12,2-23.9,4.7-35.8,7c-3.3-0.8-6.6-1.7-9.8-2.5c-1.2-1.6-5.9-2.5-1.1-5.3c3.7-0.2,7.5-0.3,11.2-0.5c10.6-4,21.1-8.2,31.8-12
		c3.9-1.4,8.3-1.7,12.4-2.6c4.2,2.5,8.4,5,12.6,7.5c3.9,4.5,7.7,9.1,11.6,13.6c0.7,0.8,1.3,1.5,2,2.3L185.3,136.2z"/>
	<path class="st9" d="M159.6,138.8c9.8,0.2,17.2,7,26.2,9.6c-1,8-1.9,16-6.2,23.1c-5.2-4.2-10.3-8.4-15.5-12.7
		c-2.6-3.6-5.2-4.8-9.7-2c-8.2,5.1-17.2,9.1-25.4,14.2c-5.9,3.6-11.8,5-18.5,3.9c0-1.2,0-2.4,0-3.5c0.6-0.4,1.3-0.8,1.9-1.2
		c6.6-1.3,11.9-4.7,16.8-9.3c7.1-6.6,14.7-12.7,22.2-19C154.1,140.9,156.9,139.9,159.6,138.8z"/>
	<path class="st10" d="M172.4,98.7c-1.1-0.7-2.3-2-3.4-1.9c-10.1,0.9-17.7-3.3-23.7-11.3c7.6-2.9,13.7,4.7,21.2,4.3
		c14.5,0,28.3,5.2,42.6,6.6c0.5,0.3,1,0.5,1.6,0.6c0.7,3.1,1.4,6.2,2.1,9.3C199.1,105.2,185.9,101.3,172.4,98.7z"/>
	<path class="st10" d="M258.7,137.5c3-0.7,5.9-1.3,8.9-2c3.1,21.4,0.2,43.1,5.3,64.7c-6.4-1.2-0.7-12.6-10.1-8.9
		c-0.4-1.2-1.3-2.6-1-3.7C266,170.7,257.3,154.4,258.7,137.5z"/>
	<path class="st11" d="M150.2,254.4c3.3,0.1,6.5,0.3,9.8,0.4c1.6,5.2,4.8,10.2,2.1,15.9c-1.4,3-3.2,5.9-7.2,5.5
		c-4.2-0.5-4.9-4.1-5.1-7.2C149.5,264.1,150,259.3,150.2,254.4z"/>
	<path class="st11" d="M122.5,253c3.4,0.1,6.8,0.2,10.2,0.2c1.4,4.6,3.2,9.3,1.9,14.2c-0.9,3.5-2.2,7.2-6.8,7
		c-4.9-0.2-5.3-4.3-5.5-7.8C122,262.1,122.4,257.5,122.5,253z"/>
	<path class="st12" d="M112.5,170.3c-0.6,0.4-1.3,0.8-1.9,1.2c-1.9-12.7-3.8-25.4-5.7-38.1c3.3,0.8,6.6,1.7,9.8,2.5
		c-0.2,1.3-0.3,2.7-0.5,4C113.6,150,113,160.1,112.5,170.3z"/>
	<path class="st12" d="M115,127.6c-3.7,0.2-7.5,0.3-11.2,0.5c-1.2-6.3-0.2-12.4,0.8-18.6C117.5,110.1,115.6,119.2,115,127.6z"/>
	<path class="st13" d="M210.8,97.1c-0.6-0.1-1.1-0.3-1.6-0.6c0.2-1.2,0.4-2.4,0.6-3.6c5.5,2.2,13.1-2.8,17,4.9
		C221.5,97.6,216.1,97.3,210.8,97.1z"/>
	<path class="st14" d="M138,73.9c-1.8,0-3.6,0-5.5,0c-2.5-8.7-11.3-16-18.1-14.9c-3.7-0.5-3-2.3-1.5-4.6c4.6-7.2,14.7-10.2,23.2-6.1
		c8.7,4.1,6.1,11.5,4.3,18.4C139.8,69.1,138.8,71.5,138,73.9z"/>
	<path class="st15" d="M114.4,58.9c6.8-1,15.6,6.2,18.1,14.9c-3.1,0.8-6.2,1.6-9.3,2.4C111.9,74.8,113.4,66.8,114.4,58.9z"/>
	<path class="st0" d="M172.4,98.7c13.5,2.6,26.7,6.5,40.5,7.7c4.4,11.4-0.4,23.3-13,32.3c-4.9-0.9-9.7-1.7-14.6-2.6
		c0,0,0.1,0.3,0.1,0.3c0.1-1.5-0.9-1.9-2-2.3c-3.9-4.5-7.7-9.1-11.6-13.6c1.9-6.4-1-12.5-1.1-18.8
		C171.2,100.7,171.8,99.7,172.4,98.7z"/>
	<path class="st9" d="M238.3,102.2c0.9-5.1-0.1-10.5,2.3-15.4c2.1-4.4,5.3-6.7,10.2-5.2c6.3,1.9,3.6,6.6,1.7,9.4
		c-3,4.5,2.2,9.9-2.4,13.8c-0.3,1.4-0.6,2.8-0.9,4.2C240.9,114.3,243.2,102.5,238.3,102.2z"/>
	<path class="st12" d="M170.6,101.8c0.2,6.3,3,12.4,1.1,18.8c-4.2-2.5-8.4-5-12.6-7.5C158.8,105,164.3,103,170.6,101.8z"/>
	<path class="st5" d="M114.2,139.9c0.2-1.3,0.3-2.7,0.5-4c11.9-2.4,23.8-5.1,35.8-7c7.3-1.2,7.7,5.1,9.1,9.9
		c-2.7,1.1-5.5,2.1-8.2,3.2C139.2,137.8,126.7,139.2,114.2,139.9z"/>
	<path class="st2" d="M183.3,134.2c1.1,0.4,2.1,0.8,2,2.3C184.7,135.7,184,134.9,183.3,134.2z"/>
	<path class="st1" d="M114.2,139.9c12.5-0.7,25-2.1,37.2,2.1c-7.4,6.3-15.1,12.3-22.2,19c-4.9,4.6-10.2,8-16.8,9.3
		C113,160.1,113.6,150,114.2,139.9z"/>
</g>
</svg>
