<svg width="128" height="123" viewBox="0 0 128 123" fill="none" xmlns="http://www.w3.org/2000/svg">
<circle cx="6.72267" cy="6.72267" r="6.72267" fill="#FFE5CF"/>
<circle cx="6.72267" cy="34.1115" r="6.72267" fill="#FFE5CF"/>
<circle cx="6.72267" cy="61.4997" r="6.72267" fill="#FFE5CF"/>
<circle cx="6.72267" cy="88.8886" r="6.72267" fill="#FFE5CF"/>
<circle cx="6.72267" cy="116.277" r="6.72267" fill="#FFE5CF"/>
<circle cx="29.6294" cy="6.72267" r="6.72267" fill="#FFE5CF"/>
<circle cx="29.6294" cy="34.1115" r="6.72267" fill="#FFE5CF"/>
<circle cx="29.6294" cy="61.4997" r="6.72267" fill="#FFE5CF"/>
<circle cx="29.6294" cy="88.8886" r="6.72267" fill="#FFE5CF"/>
<circle cx="29.6294" cy="116.277" r="6.72267" fill="#FFE5CF"/>
<circle cx="52.5366" cy="6.72267" r="6.72267" fill="#FFE5CF"/>
<circle cx="52.5366" cy="34.1115" r="6.72267" fill="#FFE5CF"/>
<circle cx="52.5366" cy="61.4997" r="6.72267" fill="#FFE5CF"/>
<circle cx="52.5366" cy="88.8886" r="6.72267" fill="#FFE5CF"/>
<circle cx="52.5366" cy="116.277" r="6.72267" fill="#FFE5CF"/>
<circle cx="75.4434" cy="6.72267" r="6.72267" fill="#FFE5CF"/>
<circle cx="75.4434" cy="34.1115" r="6.72267" fill="#FFE5CF"/>
<circle cx="75.4434" cy="61.4997" r="6.72267" fill="#FFE5CF"/>
<circle cx="75.4434" cy="88.8886" r="6.72267" fill="#FFE5CF"/>
<circle cx="75.4434" cy="116.277" r="6.72267" fill="#FFE5CF"/>
<circle cx="98.3499" cy="6.72267" r="6.72267" fill="#FFE5CF"/>
<circle cx="98.3499" cy="34.1115" r="6.72267" fill="#FFE5CF"/>
<circle cx="98.3499" cy="61.4997" r="6.72267" fill="#FFE5CF"/>
<circle cx="98.3499" cy="88.8886" r="6.72267" fill="#FFE5CF"/>
<circle cx="98.3499" cy="116.277" r="6.72267" fill="#FFE5CF"/>
<circle cx="121.257" cy="6.72267" r="6.72267" fill="#FFE5CF"/>
<circle cx="121.257" cy="34.1115" r="6.72267" fill="#FFE5CF"/>
<circle cx="121.257" cy="61.4997" r="6.72267" fill="#FFE5CF"/>
<circle cx="121.257" cy="88.8886" r="6.72267" fill="#FFE5CF"/>
<circle cx="121.257" cy="116.277" r="6.72267" fill="#FFE5CF"/>
</svg>
