<svg width="146" height="90" viewBox="0 0 146 90" fill="none" xmlns="http://www.w3.org/2000/svg">
<path d="M11.9267 53.6438V5.97476C11.9267 2.67497 9.25674 0 5.96348 0C2.66993 0 0 2.67497 0 5.97476V84.0252C0 87.325 2.66993 90 5.96348 90C9.25674 90 11.9267 87.325 11.9267 84.0252V72.832L134.074 72.5443V83.7375C134.074 87.0373 136.744 89.7123 140.037 89.7123C143.33 89.7123 146 87.0373 146 83.7375V53.3561L11.9267 53.6438Z" fill="#617EFF"/>
<path d="M146 48.5259H55.3452V26.026C55.3452 19.4969 60.6281 14.204 67.1449 14.204H122.178C135.335 14.204 146 24.8892 146 38.0704V48.5259Z" fill="#617EFF"/>
<path d="M34.125 45.9521C42.1659 45.9521 48.6844 39.4212 48.6844 31.3651C48.6844 23.3089 42.1659 16.7781 34.125 16.7781C26.084 16.7781 19.5655 23.3089 19.5655 31.3651C19.5655 39.4212 26.084 45.9521 34.125 45.9521Z" fill="#617EFF"/>
</svg>
