<svg width="32" height="21" viewBox="0 0 32 21" fill="none" xmlns="http://www.w3.org/2000/svg">
<path d="M2.81005 10.2782H7.72161V12.3928C7.72161 12.643 7.93142 12.8458 8.19036 12.8458C8.44929 12.8458 8.65911 12.643 8.65911 12.3928V9.82521V5.99476C8.65911 5.74457 8.44929 5.54175 8.19036 5.54175H3.70136C3.48211 5.54175 3.29211 5.68864 3.24405 5.89534L2.35274 9.72579C2.32149 9.86006 2.35511 10.0007 2.44405 10.1082C2.53299 10.2156 2.66767 10.2782 2.81005 10.2782ZM4.07642 6.44776H7.72161V9.3722H3.39592L4.07642 6.44776Z" fill="#516AD6"/>
<path d="M8.04057 16.6152C7.78932 16.6738 7.63432 16.919 7.69557 17.1618C7.71307 17.2313 7.72182 17.3032 7.72182 17.3756C7.7205 17.8745 7.29994 18.281 6.78432 18.2817C6.26807 18.281 5.84744 17.8745 5.84619 17.3756C5.84744 16.8773 6.26807 16.4708 6.78432 16.4702C7.04244 16.4702 7.25244 16.2667 7.25244 16.0172C7.25244 15.7672 7.04244 15.5642 6.78432 15.5642C5.74782 15.5642 4.90994 16.3732 4.90869 17.3756C4.90994 18.3781 5.74694 19.1877 6.78432 19.1877C7.81838 19.1877 8.65869 18.38 8.65869 17.3756C8.65869 17.2313 8.64119 17.0881 8.60682 16.9492C8.54532 16.704 8.29169 16.5566 8.04057 16.6152Z" fill="#516AD6"/>
<path d="M24.0854 16.6025C24.0485 16.6025 24.0116 16.6067 23.9748 16.6152C23.7235 16.6738 23.5691 16.919 23.6298 17.1618C23.6466 17.2319 23.656 17.3038 23.656 17.3762C23.6547 17.8746 23.2341 18.281 22.7185 18.2823C22.2022 18.281 21.7816 17.8746 21.781 17.3762C21.7816 16.8773 22.2022 16.4708 22.7185 16.4696C22.9766 16.4696 23.1873 16.2667 23.1873 16.0172C23.1873 15.7672 22.9766 15.5642 22.7185 15.5642C22.2172 15.5642 21.7466 15.7527 21.3922 16.0945C21.0385 16.437 20.8435 16.8918 20.8435 17.3762C20.8435 17.8601 21.0385 18.3149 21.3922 18.6573C21.7466 18.9992 22.2172 19.1877 22.7185 19.1877C23.2191 19.1877 23.6898 18.9992 24.0441 18.6573C24.3979 18.3149 24.5928 17.8601 24.5928 17.3762C24.5928 17.2313 24.5754 17.0875 24.541 16.9492C24.4898 16.745 24.3023 16.6025 24.0854 16.6025Z" fill="#516AD6"/>
<path d="M31.5312 8.50193H29.5V6.87606H30.2812C30.5401 6.87606 30.7499 6.67323 30.7499 6.42305C30.7499 6.17287 30.5401 5.97004 30.2812 5.97004H29.5V4.34416H30.9062C31.1651 4.34416 31.3749 4.14134 31.3749 3.89116C31.3749 3.64098 31.1651 3.43815 30.9062 3.43815H29.5V1.81233H31.5312C31.7902 1.81233 32 1.60951 32 1.35933C32 1.10914 31.7902 0.906318 31.5312 0.906318H29.4184C29.3494 0.717564 29.2386 0.544093 29.0881 0.398647C28.8225 0.141942 28.4694 0.000604011 28.0938 0H11.0031C10.6268 0.000604011 10.2738 0.141942 10.0087 0.398647C9.74312 0.654747 9.59687 0.996013 9.59625 1.35902V3.72977H3.81312C2.709 3.72977 1.76869 4.45687 1.5265 5.49783L0.816875 8.54723C0.627375 9.36192 0.53125 10.1983 0.53125 11.0332V15.2016C0.217438 15.3483 0 15.6581 0 16.0169V16.9229C0 17.4225 0.420563 17.8289 0.9375 17.8289H3.06437C3.29594 19.6141 4.87512 21 6.78406 21C8.693 21 10.2722 19.6141 10.5037 17.8289H18.9989C19.2304 19.6141 20.8096 21 22.7186 21C24.6296 21 26.2101 19.6111 26.439 17.8231C27.1552 17.7611 27.7186 17.178 27.7186 16.4699V12.8456H28.0938C28.4694 12.8456 28.8226 12.7042 29.0882 12.4481C29.2386 12.3024 29.3494 12.1288 29.4185 11.9398H30.9062C31.1652 11.9398 31.375 11.737 31.375 11.4868C31.375 11.2367 31.1652 11.0338 30.9062 11.0338H29.5V9.40795H31.5312C31.7902 9.40795 32 9.20512 32 8.95494C32 8.70476 31.7902 8.50193 31.5312 8.50193ZM1.73156 8.74601L2.44119 5.69654C2.5865 5.07194 3.15069 4.63572 3.81312 4.63572H9.59625V12.3931C9.59625 12.395 9.5965 12.397 9.59656 12.3989V14.9827C8.90887 14.2288 7.90331 13.7519 6.78406 13.7519C5.64556 13.7519 4.57056 14.256 3.86025 15.1109H1.46875V11.0333C1.46875 10.2651 1.55719 9.49559 1.73156 8.74601ZM0.9375 16.0169H3.30819C3.18619 16.3068 3.10425 16.6109 3.06375 16.9229H0.9375V16.0169ZM6.78406 20.094C5.23325 20.094 3.97156 18.8747 3.97156 17.3759C3.97156 15.866 5.25031 14.6579 6.78406 14.6579C8.33488 14.6579 9.59656 15.8772 9.59656 17.3759C9.59656 18.8747 8.33488 20.094 6.78406 20.094ZM22.7185 20.094C21.1677 20.094 19.906 18.8747 19.906 17.3759C19.906 15.8772 21.1677 14.6579 22.7185 14.6579C24.2693 14.6579 25.531 15.8772 25.531 17.3759C25.531 18.8747 24.2694 20.094 22.7185 20.094ZM28.0938 11.9401H11.9406C11.6819 11.9401 11.4712 12.143 11.4712 12.3931C11.4712 12.6425 11.6819 12.8455 11.94 12.8455H26.7811V16.4699C26.7811 16.6782 26.6346 16.8537 26.436 16.9064C26.1969 15.1292 24.6216 13.7518 22.7186 13.7518C20.8097 13.7518 19.2304 15.1377 18.9989 16.9229H10.5341V12.3928H10.5337V1.35902C10.5344 1.11017 10.745 0.90662 11.0031 0.906016H28.0938C28.3513 0.90662 28.5609 1.10933 28.5624 1.35745C28.5624 1.35806 28.5624 1.35866 28.5624 1.35933C28.5624 1.36053 28.5626 1.36162 28.5626 1.36283V3.88765C28.5626 3.88886 28.5624 3.89001 28.5624 3.89116C28.5624 3.8923 28.5626 3.89345 28.5626 3.89466V6.41955C28.5626 6.42075 28.5624 6.4219 28.5624 6.42305C28.5624 6.4242 28.5626 6.42534 28.5626 6.42655V8.95144C28.5626 8.95265 28.5624 8.95379 28.5624 8.95494C28.5624 8.95609 28.5626 8.95724 28.5626 8.95844V11.4833C28.5626 11.4845 28.5624 11.4856 28.5624 11.4868C28.5624 11.4873 28.5624 11.4878 28.5624 11.4883C28.5607 11.737 28.3512 11.9395 28.0938 11.9401Z" fill="#516AD6"/>
<path d="M15.6564 4.61133H14.2191C13.9603 4.61133 13.7505 4.81403 13.7505 5.06422V7.78196C13.7505 8.0322 13.9603 8.23497 14.2191 8.23497C14.4779 8.23497 14.6878 8.03226 14.6878 7.78196V6.87607H15.2815C15.5404 6.87607 15.7501 6.67336 15.7501 6.42306C15.7501 6.17288 15.5404 5.97011 15.2815 5.97011H14.6878V5.5171H15.6564C15.9153 5.5171 16.1251 5.3144 16.1251 5.06409C16.1251 4.81403 15.9153 4.61133 15.6564 4.61133Z" fill="#516AD6"/>
<path d="M19.4999 5.97017C19.4999 5.22096 18.8726 4.61133 18.1017 4.61133H17.1876C16.9288 4.61133 16.719 4.81403 16.719 5.06422V7.78196C16.719 8.0322 16.9288 8.23497 17.1876 8.23497C17.4464 8.23497 17.6563 8.03226 17.6563 7.78196V7.32907H17.9063L18.6983 8.10094C18.7899 8.19027 18.9106 8.23497 19.0311 8.23497C19.1504 8.23497 19.2697 8.19118 19.3612 8.10366C19.5449 7.92753 19.5461 7.64068 19.364 7.4631L18.944 7.05389C19.2814 6.80546 19.4999 6.41219 19.4999 5.97017ZM18.1017 6.423H17.6563V5.5171H18.1017C18.3557 5.5171 18.5624 5.72029 18.5624 5.97011C18.5624 6.21987 18.3557 6.423 18.1017 6.423Z" fill="#516AD6"/>
<path d="M22.1559 5.51722C22.4148 5.51722 22.6246 5.31452 22.6246 5.06422C22.6246 4.81403 22.4148 4.61133 22.1559 4.61133H20.7186C20.4598 4.61133 20.25 4.81403 20.25 5.06422V7.78196C20.25 8.0322 20.4598 8.23497 20.7186 8.23497H22.1559C22.4148 8.23497 22.6246 8.03226 22.6246 7.78196C22.6246 7.53178 22.4148 7.32901 22.1559 7.32901H21.1873V6.87607H21.781C22.0399 6.87607 22.2496 6.67336 22.2496 6.42306C22.2496 6.17288 22.0399 5.97011 21.781 5.97011H21.1873V5.5171H22.1559V5.51722Z" fill="#516AD6"/>
<path d="M25.0939 5.51722C25.3528 5.51722 25.5626 5.31452 25.5626 5.06422C25.5626 4.81403 25.3528 4.61133 25.0939 4.61133H23.6566C23.3978 4.61133 23.188 4.81403 23.188 5.06422V7.78196C23.188 8.0322 23.3978 8.23497 23.6566 8.23497H25.0939C25.3528 8.23497 25.5626 8.03226 25.5626 7.78196C25.5626 7.53178 25.3528 7.32901 25.0939 7.32901H24.1253V6.87607H24.719C24.9779 6.87607 25.1876 6.67336 25.1876 6.42306C25.1876 6.17288 24.9779 5.97011 24.719 5.97011H24.1253V5.5171H25.0939V5.51722Z" fill="#516AD6"/>
</svg>
