<!-- Generated by IcoMoon.io -->
<svg version="1.1" xmlns="http://www.w3.org/2000/svg" width="32" height="32" viewBox="0 0 32 32">
<title>usp_delivery</title>
<path fill="#1e2b5a" d="M18.003 22.111l-4.121-16.846 10.459-2.598 4.121 16.846-10.459 2.598zM17.555 26.37c0.001 0.004 0.003 0.009 0.004 0.013 0.327 1.273-0.471 2.562-1.782 2.879s-2.638-0.457-2.965-1.73c-0.327-1.273 0.471-2.562 1.782-2.879 0.009-0.002 0.019-0.004 0.028-0.006l-3.817-14.642h-2.483c-0.646 0-1.169-0.523-1.169-1.169s0.523-1.169 1.169-1.169h1.594c1.628 0 3.050 1.099 3.461 2.674l3.587 13.762 10.91-2.577c0.632-0.149 1.267 0.237 1.424 0.867 0.001 0.005 0.003 0.010 0.004 0.015 0.147 0.621-0.238 1.243-0.859 1.39l-10.888 2.572zM3.778 13.778h4.507c0.614 0 1.111 0.497 1.111 1.111s-0.497 1.111-1.111 1.111h-4.507c-0.614 0-1.111-0.497-1.111-1.111s0.497-1.111 1.111-1.111zM3.778 17.111h5.628c0.614 0 1.111 0.497 1.111 1.111s-0.497 1.111-1.111 1.111h-5.628c-0.614 0-1.111-0.497-1.111-1.111s0.497-1.111 1.111-1.111zM3.778 20.444h6.75c0.614 0 1.111 0.497 1.111 1.111s-0.497 1.111-1.111 1.111h-6.75c-0.614 0-1.111-0.497-1.111-1.111s0.497-1.111 1.111-1.111z"></path>
</svg>
