<!-- Generated by IcoMoon.io -->
<svg version="1.1" xmlns="http://www.w3.org/2000/svg" width="32" height="32" viewBox="0 0 32 32">
<title>usp_100days</title>
<path fill="#1e2b5a" d="M15.816 7.372c-0.567 0-1.012-0.418-1.012-0.952 0-0.542 0.442-0.952 1.012-0.952h4.26c0.559 0 1.001 0.42 1.001 0.952 0 0.211-0.080 0.407-0.247 0.634l-0.007 0.010-3.375 4.211h2.73c0.567 0 1.001 0.417 1.001 0.952 0 0.539-0.439 0.952-1.001 0.952h-4.754c-0.567 0-1.012-0.418-1.012-0.952 0-0.219 0.083-0.399 0.266-0.632l3.376-4.222h-2.236zM23.84 3.817c-0.491 0-0.876-0.362-0.876-0.825 0-0.47 0.382-0.825 0.876-0.825h3.685c0.483 0 0.866 0.364 0.866 0.825 0 0.183-0.069 0.353-0.214 0.549l-0.006 0.008-2.92 3.65h2.362c0.49 0 0.866 0.362 0.866 0.825 0 0.468-0.38 0.825-0.866 0.825h-4.113c-0.491 0-0.876-0.362-0.876-0.825 0-0.19 0.072-0.346 0.23-0.548l2.921-3.66h-1.934zM31.073 19.985c0.512 0 0.927 0.415 0.927 0.927s-0.415 0.927-0.927 0.927h-1.162c0.013 0.171 0.020 0.344 0.020 0.518 0 3.655-3.009 6.629-6.707 6.629-2.292 0-4.399-1.135-5.639-3.035l-1.586-2.429-1.586 2.429c-1.241 1.9-3.348 3.035-5.636 3.035-3.702 0-6.71-2.974-6.71-6.629 0-0.174 0.007-0.347 0.020-0.518h-1.162c-0.512 0-0.927-0.415-0.927-0.927s0.415-0.927 0.927-0.927h1.586c0.967-2.487 3.41-4.257 6.263-4.257h14.45c2.853 0 5.295 1.77 6.263 4.257h1.586z"></path>
</svg>
