<!-- Generated by IcoMoon.io -->
<svg version="1.1" xmlns="http://www.w3.org/2000/svg" width="32" height="32" viewBox="0 0 32 32">
<title>usp_guarantee</title>
<path fill="#1e2b5a" d="M26.162 12.996c0-5.705-4.542-10.329-10.144-10.329s-10.144 4.625-10.144 10.329c0 5.705 4.542 10.329 10.144 10.329 5.6-0.006 10.138-4.627 10.144-10.329zM19.121 10.975c0.587-0.001 1.134 0.3 1.456 0.8s0.374 1.131 0.139 1.679l-1.010 2.361c-0.369 0.829-1.193 1.349-2.087 1.316h-1.63c-0.528 0.023-1.055-0.084-1.534-0.312-0.836-0.339-1.74-0.47-2.636-0.381-0.32 0-0.58-0.264-0.58-0.59v-3.454c0-0.326 0.26-0.59 0.58-0.59h0.792c1.119 0 1.845-1.607 2.613-3.305 0.175-0.56 0.708-0.921 1.283-0.87 0.348 0.079 0.773 0.395 0.773 1.456v1.889l1.84 0.002zM29.177 24.577v-0.002c0.226 0.396 0.206 0.889-0.050 1.265s-0.702 0.568-1.145 0.492l-2.773-0.478-0.965 2.7c-0.152 0.429-0.534 0.731-0.98 0.774s-0.877-0.179-1.107-0.571l-2.29-3.946c-0.044-0.076-0.052-0.168-0.023-0.251s0.094-0.148 0.175-0.177c2.406-0.885 4.469-2.534 5.884-4.704 0.056-0.085 0.15-0.134 0.25-0.131s0.191 0.058 0.242 0.146l2.782 4.885zM6.112 19.647c1.41 2.176 3.47 3.833 5.877 4.724 0.081 0.030 0.145 0.095 0.174 0.177s0.021 0.174-0.023 0.25l-2.296 3.956c-0.229 0.393-0.659 0.616-1.105 0.573s-0.829-0.343-0.982-0.772l-0.966-2.701-2.772 0.478c-0.443 0.076-0.889-0.115-1.146-0.491s-0.276-0.869-0.051-1.264l2.796-4.917c0.050-0.088 0.142-0.144 0.242-0.146s0.196 0.046 0.25 0.132z"></path>
</svg>
